<svg xmlns="http://www.w3.org/2000/svg" viewBox="0 0 347 369.05"><defs><style>.cls-1{fill:#fff;stroke:#fff;stroke-miterlimit:10;}</style></defs><g id="Layer_1" data-name="Layer 1"><path d="M854,349.5A173.55,173.55,0,0,1,719,518.72c-7.81-14.69-9.74-41,3.27-52.91,4.9-4.5,9.92-5.13,15.45-6.8,36-10.83,66.66-57.29,62.72-94.31-2-18.7-13.27-39.32-17.15-38.56,3.43-5,9.83-15.56,6.82-21.75-.4-.82-1.52-2.7-.71-3.8,1.23-1.66,5.57.16,6.46-1.2,1.05-1.58-4.5-4.54-4.11-8.69.29-3.1,3.54-3.17,5.33-7.29a13.37,13.37,0,0,0-1.45-12.33c-2-2.9-3.63-2.43-5.17-5.34-2.16-4.11-.47-8.05-1.55-8.38-1.65-.5-5.3,8.9-7.61,8.5-3.09-.53-1.37-18.06-3.39-18.27-1.65-.18-3.86,11.5-6.24,11.39s-3-13.25-5-13.26-2.67,13.34-5.82,13.68c-3.46.38-8.1-15.11-8.62-14.94s5,10.46,1.07,14.77-15.24.92-15.49,2.08c-.18.82,5.85,1.21,7.59,4.89,1.62,3.44-2.14,6.21-.73,9.59,1.79,4.28,9.21,3.09,10.29,6,1.48,3.92-11.57,7.94-20.74,18.8-4.35,5.17-8.58,19.78-16.85,48.81-2,6.87-2,7.2-2.63,8.36-11.61,21.83-56.85,25.07-60.26,17.46-1.65-3.68,6.09-10.8,5.44-11.24s-6.44,6.58-7.23,6.06c-.47-.31,1.22-3.07,2.89-6.51,3-6.1,6.28-15.21,4.61-16.14s-8.07,6.93-8.85,6.36c-1-.73,8.93-14.32,8.1-14.89-.61-.42-6.31,7.07-8,6.22-2.09-1,2.92-13.7,2.44-13.85s-3.2,9.83-5.71,9.73c-3.81-.17-5.47-23.31-6-23.31-.32,0,1.5,8.55-.73,9.59-4.1,1.9-13-25.54-32.09-33.44-27.74-11.48-83.2,15.78-92.39,56-1.33,5.84,44.32-21.3,45.83-21,2.25.51-18.78,77.11-13,78.8,5.51,1.61,33.45-64.94,35.74-64.11s-25.73,68.72-18.42,71.93c4.88,2.14,23.58-25.38,27.44-23.2,3.11,1.75-7.49,20.3-2.23,24,3.93,2.79,14.28-4.39,15.35-2.84s-8.37,8.44-7.33,10c1.23,1.87,14.55-8,21.8-4,8.16,4.4,4.61,24,6.13,24.06,1.14,0,2.75-11,3.82-10.94s-.74,10.12,4,12.64c1.52.81,3.83.91,5-.13,2.69-2.43-2.26-9.76-.36-11,1-.63,3.42.65,4.61,2.3a5.61,5.61,0,0,1,1,2.53c.65,4.37,5.13,11.27,10.07,12,2.72.38,3-1.49,5.65-1,3.06.51,5.16,3.45,9.24,9.32,1.3,1.86,1.2,1.86,2.32,3.5,4.31,6.28,6.94,10.1,10.48,11.45,6.17,2.36,10.34-4.64,15.34-2.84,6.88,2.46.06,16,8.77,33.81,2.73,5.58,6,9.58,5.92,14.72A173.52,173.52,0,1,1,854,349.5Z" transform="translate(-507 -176)"/><path d="M737.67,459c-5.53,1.67-10.55,2.3-15.45,6.8-13,12-11.08,38.22-3.27,52.91-1.61.37-3.22.71-4.85,1,.09-5.14-3.19-9.14-5.92-14.72-8.71-17.81-1.89-31.35-8.77-33.81-5-1.8-9.17,5.2-15.34,2.84-3.54-1.35-6.17-5.17-10.48-11.45-1.12-1.64-1-1.64-2.32-3.5-4.08-5.87-6.18-8.81-9.24-9.32-2.7-.44-2.93,1.43-5.65,1-4.94-.69-9.42-7.59-10.07-12a5.61,5.61,0,0,0-1-2.53c-1.19-1.65-3.62-2.93-4.61-2.3-1.9,1.2,3,8.53.36,11-1.15,1-3.46.94-5,.13-4.76-2.52-3-12.58-4-12.64s-2.68,11-3.82,10.94c-1.52,0,2-19.66-6.13-24.06-7.25-3.92-20.57,5.91-21.8,4-1-1.58,8.37-8.53,7.33-10s-11.42,5.63-15.35,2.84c-5.26-3.74,5.34-22.29,2.23-24-3.86-2.18-22.56,25.34-27.44,23.2-7.31-3.21,20.72-71.1,18.42-71.93s-30.23,65.72-35.74,64.11c-5.81-1.69,15.22-78.29,13-78.8-1.51-.34-47.16,26.8-45.83,21,9.19-40.19,64.65-67.45,92.39-56,19.07,7.9,28,35.34,32.09,33.44,2.23-1,.41-9.55.73-9.59.52,0,2.18,23.14,6,23.31,2.51.1,5.3-9.85,5.71-9.73s-4.53,12.82-2.44,13.85c1.72.85,7.42-6.64,8-6.22.83.57-9.1,14.16-8.1,14.89.78.57,7.14-7.32,8.85-6.36s-1.64,10-4.61,16.14c-1.67,3.44-3.36,6.2-2.89,6.51.79.52,6.61-6.49,7.23-6.06s-7.09,7.56-5.44,11.24c3.41,7.61,48.65,4.37,60.26-17.46.61-1.16.67-1.49,2.63-8.36,8.27-29,12.5-43.64,16.85-48.81,9.17-10.86,22.22-14.88,20.74-18.8-1.08-2.88-8.5-1.69-10.29-6-1.41-3.38,2.35-6.15.73-9.59-1.74-3.68-7.77-4.07-7.59-4.89.25-1.16,11.62,2.15,15.49-2.08s-1.51-14.62-1.07-14.77,5.16,15.32,8.62,14.94c3.15-.34,3.8-13.68,5.82-13.68s2.45,13.15,5,13.26,4.59-11.57,6.24-11.39c2,.21.3,17.74,3.39,18.27,2.31.4,6-9,7.61-8.5,1.08.33-.61,4.27,1.55,8.38,1.54,2.91,3.18,2.44,5.17,5.34A13.37,13.37,0,0,1,797,283.41c-1.79,4.12-5,4.19-5.33,7.29-.39,4.15,5.16,7.11,4.11,8.69-.89,1.36-5.23-.46-6.46,1.2-.81,1.1.31,3,.71,3.8,3,6.19-3.39,16.79-6.82,21.75,3.88-.76,15.16,19.86,17.15,38.56C804.33,401.72,773.63,448.18,737.67,459Z" transform="translate(-507 -176)"/><text x="-507" y="-176"/></g><g id="ayam"><path class="cls-1" d="M735.58,542.13c1.16.74,2.11,1.39,2.76,1.84A17.16,17.16,0,0,1,735.58,542.13Z" transform="translate(-507 -176)"/><path class="cls-1" d="M739.31,544.55s-.36-.17-.92-.55A4,4,0,0,1,739.31,544.55Z" transform="translate(-507 -176)"/><path class="cls-1" d="M737.67,459c-5.53,1.67-10.55,2.3-15.45,6.8-13,12-11.08,38.22-3.27,52.91-1.61.37-3.22.71-4.85,1,.09-5.14-3.19-9.14-5.92-14.72-8.71-17.81-1.89-31.35-8.77-33.81-5-1.8-9.17,5.2-15.34,2.84-3.54-1.35-6.17-5.17-10.48-11.45-1.12-1.64-1-1.64-2.32-3.5-4.08-5.87-6.18-8.81-9.24-9.32-2.7-.44-2.93,1.43-5.65,1-4.94-.69-9.42-7.59-10.07-12a5.61,5.61,0,0,0-1-2.53c-1.19-1.65-3.62-2.93-4.61-2.3-1.9,1.2,3,8.53.36,11-1.15,1-3.46.94-5,.13-4.76-2.52-3-12.58-4-12.64s-2.68,11-3.82,10.94c-1.52,0,2-19.66-6.13-24.06-7.25-3.92-20.57,5.91-21.8,4-1-1.58,8.37-8.53,7.33-10s-11.42,5.63-15.35,2.84c-5.26-3.74,5.34-22.29,2.23-24-3.86-2.18-22.56,25.34-27.44,23.2-7.31-3.21,20.72-71.1,18.42-71.93s-30.23,65.72-35.74,64.11c-5.81-1.69,15.22-78.29,13-78.8-1.51-.34-47.16,26.8-45.83,21,9.19-40.19,64.65-67.45,92.39-56,19.07,7.9,28,35.34,32.09,33.44,2.23-1,.41-9.55.73-9.59.52,0,2.18,23.14,6,23.31,2.51.1,5.3-9.85,5.71-9.73s-4.53,12.82-2.44,13.85c1.72.85,7.42-6.64,8-6.22.83.57-9.1,14.16-8.1,14.89.78.57,7.14-7.32,8.85-6.36s-1.64,10-4.61,16.14c-1.67,3.44-3.36,6.2-2.89,6.51.79.52,6.61-6.49,7.23-6.06s-7.09,7.56-5.44,11.24c3.41,7.61,48.65,4.37,60.26-17.46.61-1.16.67-1.49,2.63-8.36,8.27-29,12.5-43.64,16.85-48.81,9.17-10.86,22.22-14.88,20.74-18.8-1.08-2.88-8.5-1.69-10.29-6-1.41-3.38,2.35-6.15.73-9.59-1.74-3.68-7.77-4.07-7.59-4.89.25-1.16,11.62,2.15,15.49-2.08s-1.51-14.62-1.07-14.77,5.16,15.32,8.62,14.94c3.15-.34,3.8-13.68,5.82-13.68s2.45,13.15,5,13.26,4.59-11.57,6.24-11.39c2,.21.3,17.74,3.39,18.27,2.31.4,6-9,7.61-8.5,1.08.33-.61,4.27,1.55,8.38,1.54,2.91,3.18,2.44,5.17,5.34A13.37,13.37,0,0,1,797,283.41c-1.79,4.12-5,4.19-5.33,7.29-.39,4.15,5.16,7.11,4.11,8.69-.89,1.36-5.23-.46-6.46,1.2-.81,1.1.31,3,.71,3.8,3,6.19-3.39,16.79-6.82,21.75,3.88-.76,15.16,19.86,17.15,38.56C804.33,401.72,773.63,448.18,737.67,459Z" transform="translate(-507 -176)"/></g></svg>